PathFileType	4	(X/Y/Z)	Demo_SinglePerson_0-99.trc
DataRate	CameraRate	NumFrames	NumMarkers	Units	OrigDataRate	OrigDataStartFrame	OrigNumFrames
60	60	9	22	m	60	87	100
Frame#	Time	Hip			RHip			RKnee			RAnkle			RBigToe			RSmallToe			RHeel			LHip			LKnee			LAnkle			LBigToe			LSmallToe			LHeel			Neck			Head			Nose			RShoulder			RElbow			RWrist			LShoulder			LElbow			LWrist			
		X1	Y1	Z1	X2	Y2	Z2	X3	Y3	Z3	X4	Y4	Z4	X5	Y5	Z5	X6	Y6	Z6	X7	Y7	Z7	X8	Y8	Z8	X9	Y9	Z9	X10	Y10	Z10	X11	Y11	Z11	X12	Y12	Z12	X13	Y13	Z13	X14	Y14	Z14	X15	Y15	Z15	X16	Y16	Z16	X17	Y17	Z17	X18	Y18	Z18	X19	Y19	Z19	X20	Y20	Z20	X21	Y21	Z21	X22	Y22	Z22	
87	1.45	0.008771819049686876	0.9209187117707098	-0.758790759825483	-0.09373401282035924	0.913677504608053	-0.756858430869626	-0.0784964612549917	0.5284428533230089	-0.634419669152159	-0.05235645289399928	0.14893962616539363	-0.7239909328342343	-0.06389818146414675	0.04597588140218323	-0.5815347730918637	-0.11052755448080133	0.05474991059286931	-0.6167284680612982	-0.047600408021585404	0.09622034812573596	-0.7597790804915167	0.07611950256241988	0.9113226521056933	-0.8315812360074339	0.0744761901046921	0.5068008317828171	-0.711294825048457	0.035913923761569606	0.2514633822353244	-1.006991078609126	0.0063416461595208595	0.13918931259159925	-0.8808149363769618	0.06027255457295877	0.11649080044553908	-0.9463562473153948	0.024514022419754283	0.23922962909487439	-1.0901830691355563	-0.04338399586479735	1.4403618441178412	-0.6358517056518698	-0.0499243719351504	1.6358336844979282	-0.4232765979813187	-0.07170658664192724	1.493138098454699	-0.4399189238983924	-0.21863767013553395	1.3733584543986415	-0.6814808172854719	-0.42552254561070174	1.2053750765852402	-0.7210287395647759	-0.49587092747179135	1.2391842218679294	-0.46399024345522716	0.13128129919086293	1.4303104492183543	-0.748458017394479	0.3917374285374459	1.37439957047903	-0.7121119423145129	0.608114931135221	1.2995380252088111	-0.7386956153991757
88	1.4666666666666666	0.004924896918668999	0.9237392427420588	-0.7489981198206668	-0.09310908730687	0.9188690563725123	-0.750891762948859	-0.07782844602684516	0.5326989340259294	-0.630278332784044	-0.054359342237668244	0.14336837922404572	-0.7261651176794796	-0.0780981850352436	0.046451130065607325	-0.5620229638173676	-0.11583088685208875	0.04145082728926	-0.612814810688359	-0.046566985119917324	0.09051080047232411	-0.768469670738625	0.1058188941977531	0.9133036012901785	-0.7443859763294082	0.07613905287029073	0.5183046437651385	-0.683290131675064	0.04745288931556295	0.2690834909881417	-0.9776231705762696	0.0508662238247551	0.1430254083928548	-0.7584909410071298	0.08099698453765682	0.12974074876563263	-0.9064691552303465	0.03078549870625544	0.24584014812450702	-1.0672397889273053	-0.05213591872198455	1.4377576935799692	-0.6315345122696863	-0.07110005967798864	1.63414283921937	-0.4031177370429034	-0.08073685628418638	1.4780915406610837	-0.40899439983570696	-0.22094699120075284	1.369917035335943	-0.6799998578861928	-0.42327342564870396	1.1889994800944663	-0.7316973568607432	-0.499581906702599	1.2163076377707287	-0.4651022674727887	0.12912013323501778	1.4297709947934654	-0.7026000767413656	0.3634191748769116	1.3836741362705591	-0.7118495159779322	0.6169905403574677	1.345663946220412	-0.6543219947878014
89	1.4833333333333334	0.01678669253811346	0.9238215833653505	-0.7407249316449617	-0.0873533052364633	0.9157580020206096	-0.7435812023104643	-0.07579109102150203	0.5287826692999792	-0.6277440019025025	-0.05923193727399228	0.15027999180981017	-0.7215386655477414	-0.06769799708907268	0.052522073143733625	-0.5691342110605546	-0.1198473116075946	0.06268426763002025	-0.6132104927306352	-0.04864284122666206	0.09715915574796029	-0.754185513854664	0.112555978937039	0.9074821896075228	-0.7351857826855891	0.0828128701409778	0.5190772444436998	-0.6604112623124407	0.05090955870667984	0.24934023155440097	-0.9224838595884443	0.026485565759682424	0.15722945588419165	-0.8088276846029999	0.08537937194100183	0.1332681728510369	-0.8718640451886878	0.032264970585715855	0.22808611978578533	-1.0090141901945777	-0.06517843747269357	1.4350052998098561	-0.6117865176166374	-0.09077154075780526	1.6284605872558835	-0.39155220337365043	-0.09183601464700084	1.4711820124515766	-0.39688120655255904	-0.23068193322379316	1.3548238042561718	-0.6671212990664867	-0.4287555391596477	1.166593453154609	-0.7275850879047864	-0.5153770965508272	1.2001794081762864	-0.4476883388096739	0.12751056483653928	1.4333734016534923	-0.6891607090635253	0.3664156915058904	1.4061180065682353	-0.6993580238425926	0.596578703429349	1.392875767463877	-0.6420280875872895
90	1.5	0.020170950320378515	0.9254618356455305	-0.732587412091202	-0.08381249190772912	0.9163203926999509	-0.7336195353530123	-0.07910830264887889	0.5166593232016281	-0.6554152178203986	-0.05971297750229836	0.1488642083985427	-0.7198167464282269	-0.06731208753362727	0.05341711979305223	-0.5659724888035889	-0.12126308416357269	0.05728571146373093	-0.6200183343584239	-0.049780438165391176	0.10047086403982006	-0.7600748221364926	0.11705181401550795	0.9100584081299479	-0.7195987378980392	0.08499910773448273	0.5188334174654765	-0.63998675274315	0.06044701488039313	0.2456579298636436	-0.8904738550117755	0.05030687147501465	0.1336528762885193	-0.7687108309675806	0.09328228753586708	0.13778150655243568	-0.8240411233611853	0.04396435823593999	0.21657449877334625	-0.9704510743495322	-0.07050355535750556	1.4338636345738505	-0.5993936338086837	-0.10347766310361661	1.6239917114814684	-0.3772598557014799	-0.09948834712644898	1.4630045692223659	-0.38069173947752777	-0.23169918351711558	1.3495335870377207	-0.6593310188974718	-0.4244046064299609	1.1544052805240244	-0.7214605446677286	-0.5259677306416417	1.1799258427298218	-0.45415281119372686	0.12171750854296105	1.4344550581468383	-0.6798850738621771	0.3653588314854879	1.4237987485688188	-0.6795316104117126	0.5947203627671389	1.429547601846682	-0.6172922142983096
91	1.5166666666666666	0.026926923562433452	0.9242574850018975	-0.7216389274343761	-0.07474498864485922	0.9116802355821054	-0.7249782463997891	-0.08010019824503942	0.5117346607679994	-0.6492208795354694	-0.06024053252749785	0.14513967435602285	-0.725351569045816	-0.06653065462656695	0.0564122639873891	-0.5606860766290435	-0.10842097437136923	0.05340925826340169	-0.6074878070074405	-0.0487572309003152	0.10169741554149415	-0.7678024468047564	0.09875164911055478	0.9192806224520065	-0.7944777070869268	0.08214217847124955	0.5237546921270977	-0.6209438504014423	0.06217960726553685	0.23030492565759753	-0.8573064945579828	0.041613065649714905	0.12792781936572598	-0.705794455981413	0.0914138924456052	0.1348200972134479	-0.7675848805838067	0.052488417699353355	0.1888863072365309	-0.9189975661105629	-0.0756185252233759	1.4276377134952032	-0.5888426399065173	-0.11739929652609683	1.6144456882989708	-0.36632174705161763	-0.1099710154482058	1.4522468820615009	-0.36258655854004124	-0.23539746865402225	1.3444336168656348	-0.6524958164557577	-0.4170432952146571	1.146452761353329	-0.6988675111849447	-0.5247705229503258	1.1557669510900352	-0.44378508286604024	0.11407277839109542	1.4376620442979378	-0.6668957868840688	0.3601502952000958	1.4386211740010015	-0.676663650423256	0.5801906604963503	1.458074881884417	-0.5985129384825357
92	1.5333333333333334	0.026730498474710963	0.9264634193631837	-0.717966866052065	-0.07517801824252389	0.9133537217291615	-0.7315500725630736	-0.08087473770668871	0.5170993069928006	-0.6397045565857403	-0.052959098997106345	0.13803484600382018	-0.729185431167452	-0.07198418569491963	0.05756275457933074	-0.5504792210679258	-0.11329537459676992	0.044218753217090165	-0.6059511590114027	-0.04044349975572602	0.08607249413941458	-0.7806496219845398	0.10393463679875871	0.9279042203518075	-0.7916139602622958	0.08034023994716905	0.53283036299833	-0.6015450475713444	0.06558946402656386	0.22194481900103624	-0.8046786784930959	0.043464471265832236	0.12804620088665117	-0.64090578001259	0.09107670034896484	0.13086422100676115	-0.689494177237702	0.0538968668649204	0.2022580286050717	-0.8528665335428355	-0.07936356079666497	1.4196726298269096	-0.5863054030535358	-0.12663186368702614	1.6107346284110338	-0.3438410543507544	-0.11601707532027816	1.4557062491574444	-0.36356618580491795	-0.2375399194839291	1.338712672001547	-0.6506732753090169	-0.4092676288704683	1.1359656541946552	-0.7160530128506551	-0.5217229843275494	1.1244887477245717	-0.4658464710717934	0.11165883762366297	1.4386206217685313	-0.6491007887183641	0.3580534791938607	1.453141343349755	-0.6544639695138584	0.5524326201208741	1.4790566234202684	-0.5601219582317477
93	1.55	0.006917679930008957	0.9296642324108461	-0.7871519132583024	-0.07130773822827657	0.9062460626452407	-0.7183879741709226	-0.08359432987204962	0.5132289162295111	-0.6434841371846075	-0.05326589943210093	0.14200014413044576	-0.7341575869506681	-0.07463139686171444	0.06055298170721972	-0.5570405620867666	-0.11250013771753746	0.057884987802951815	-0.6151723870559851	-0.03933502836599483	0.09787492918404742	-0.7794634943882052	0.10167607215062713	0.9224195475447505	-0.7770471072809876	0.08459715731154437	0.5318334766120578	-0.584780486925277	0.06831111102045839	0.21101844992360153	-0.768806237875932	0.04218948828591693	0.12283451291220218	-0.5950216039659052	0.09320775004342535	0.1285458864152171	-0.6466495926524671	0.06438544036765458	0.1631642643618809	-0.8219444344040479	-0.08989403101410436	1.4248065573992956	-0.5694062331591434	-0.13918335392215544	1.6104985421015146	-0.3330055655288202	-0.13173120165123933	1.4533089539295525	-0.3364784783540391	-0.24229053143634732	1.333576570380406	-0.6387542271800754	-0.4088134554821679	1.1210273111255813	-0.6965208678698911	-0.5247239613953388	1.11611601441135	-0.44147229490273293	0.10750117037316359	1.4448891145261926	-0.6414633379173038	0.36425402268748436	1.462593013036369	-0.6547395973972986	0.5535211742226697	1.5108655778004811	-0.544302073817125
94	1.5666666666666667	0.0060640376666487765	0.9313622612560916	-0.77877628625592	-0.08883779073923723	0.8820514835845424	-0.7530166436548092	-0.08119325335603594	0.514991244344891	-0.6356086668877315	-0.049763234099633846	0.14280820129531632	-0.7384869915104965	-0.08087722893442786	0.0646683265751886	-0.5627426988188987	-0.11603594514741582	0.05755520382746683	-0.6273550806087389	-0.03541672744737869	0.09466078303753563	-0.7816708575671759	0.10620133324952515	0.9252552865511926	-0.7678118534998549	0.08322913044551247	0.5327954676583962	-0.5702502440839206	0.07296660511907982	0.21090613526636431	-0.7307453510811404	0.042560254877022245	0.12775298405313076	-0.5541798406198009	0.094050697246648	0.13102793859921327	-0.5993929202478793	0.07183766805715831	0.1626179575207771	-0.7835654728332588	-0.09280082999204332	1.422654210441462	-0.5684779192217319	-0.14893252858144881	1.603967129445416	-0.3242359784888078	-0.1418787312690282	1.4452331390262954	-0.32572564447594243	-0.2418890216786745	1.3318258730410664	-0.6387392531795842	-0.40558898716396247	1.1127413958895747	-0.6985873359746911	-0.5277342430756771	1.101668194974885	-0.4401763334136139	0.09991914646900264	1.445653366162136	-0.6401737175857594	0.3593002683963532	1.4687346018899685	-0.6467093264402864	0.5374647294823981	1.5249951640296444	-0.5198958095162277
95	1.5833333333333333	0.009814372260070285	0.9300650558069556	-0.7686431746192718	-0.08464172114240942	0.88124517474068	-0.7504960291176874	-0.0838681850895487	0.5151801190429581	-0.6378643143175667	-0.049120927165426174	0.14248215325079458	-0.7385964309888741	-0.07905320878217896	0.06336122174382887	-0.5767393721734371	-0.11661066079994799	0.055215649012702706	-0.6396953808630934	-0.03086522332450255	0.094890189129553	-0.7815577519306848	0.10701995575371813	0.9257487032958925	-0.7550961411175493	0.08027574912272377	0.5367448851222181	-0.5613280039627684	0.07670056774244313	0.20938380322556782	-0.6871050487016533	0.04285126588602843	0.12725434740476543	-0.5213725513935321	0.09522355085089299	0.12825150477774136	-0.5601200287370955	0.06872422599692014	0.18287043837273217	-0.7021425204572831	-0.10158858735496122	1.4233661279901615	-0.5587582857153925	-0.1550197008852738	1.6021935848408049	-0.3202191093845325	-0.14438991843055268	1.446086327332637	-0.32315139969549056	-0.24421056181689496	1.3274244331895455	-0.6312533615035838	-0.403933476562938	1.1068580457224302	-0.6920119703035041	-0.5201726721026385	1.0860990391011436	-0.4398754147735575	0.09426833521001661	1.4486701848308667	-0.6284774853158778	0.37802358045999074	1.470826694999512	-0.6477860978143656	0.5190832572787847	1.5328239605613116	-0.5002978444991796
